Coordinates
version=1
nRows=13
nColumns=40
inDegrees=yes

Units are S.I. units (second, meters, Newtons, ...)
If the header above contains a line with 'inDegrees', this indicates whether rotational values are in degrees (yes) or radians (no).

endheader
time	pelvis_tilt	pelvis_list	pelvis_rotation	pelvis_tx	pelvis_ty	pelvis_tz	hip_flexion_r	hip_adduction_r	hip_rotation_r	knee_angle_r	knee_angle_r_beta	ankle_angle_r	subtalar_angle_r	mtp_angle_r	hip_flexion_l	hip_adduction_l	hip_rotation_l	knee_angle_l	knee_angle_l_beta	ankle_angle_l	subtalar_angle_l	mtp_angle_l	lumbar_extension	lumbar_bending	lumbar_rotation	arm_flex_r	arm_add_r	arm_rot_r	elbow_flex_r	pro_sup_r	wrist_flex_r	wrist_dev_r	arm_flex_l	arm_add_l	arm_rot_l	elbow_flex_l	pro_sup_l	wrist_flex_l	wrist_dev_l
      1.95000000	     -1.42529554	      4.14423633	    -89.74109013	      0.14200849	      0.92560922	      1.02501107	      5.97425200	      3.96264753	      0.29858086	      4.86703039	      0.08494571	      5.58801008	     -0.00000000	     -0.00000000	     25.30186318	     -9.08685746	      0.33527991	     67.42630985	      1.17681111	      6.57160768	     -0.00000000	     -0.00000000	     -3.64652627	      2.12926820	     -8.12530183	     -0.00000000	      0.00000000	     -0.00000000	      0.00000000	      0.00000000	      0.00000000	      0.00000000	     -0.00000000	      0.00000000	      0.00000000	      0.00000000	      0.00000000	     -0.00000000	     -0.00000000
      1.96000000	     -1.39631527	      4.26610116	    -89.76044949	      0.14128335	      0.92561779	      1.03236279	      5.16191958	      4.00548274	      0.63940600	      4.08146531	      0.07123501	      5.72256127	      0.00000000	      0.00000000	     26.59814376	     -8.99730965	      0.28211186	     66.53818809	      1.16131046	      6.94390931	      0.00000000	      0.00000000	     -3.62350637	      2.07677056	     -7.81957637	      0.00000000	      0.00000000	      0.00000000	      0.00000000	      0.00000000	      0.00000000	      0.00000000	      0.00000000	      0.00000000	      0.00000000	      0.00000000	      0.00000000	      0.00000000	      0.00000000
      1.97000000	     -1.42411004	      4.43890995	    -89.76724233	      0.14064849	      0.92536384	      1.03964380	      4.59555548	      4.07861677	      0.28963516	      3.64259522	      0.06357528	      5.91829774	      0.00000000	      0.00000000	     27.90864300	     -8.95083262	      0.26639490	     65.47066541	      1.14267867	      7.06462703	      0.00000000	      0.00000000	     -3.52986774	      2.09353215	     -7.64213660	      0.00000000	      0.00000000	      0.00000000	      0.00000000	      0.00000000	      0.00000000	      0.00000000	      0.00000000	      0.00000000	      0.00000000	      0.00000000	      0.00000000	      0.00000000	      0.00000000
      1.98000000	     -1.35219212	      4.49344604	    -89.77979468	      0.14016525	      0.92526188	      1.04711984	      3.67052450	      4.05799744	      0.83237539	      2.81280380	      0.04909269	      6.11898947	      0.00000000	      0.00000000	     28.95337548	     -8.75347523	      0.23301774	     64.14316614	      1.11950944	      7.12810006	      0.00000000	      0.00000000	     -3.57864418	      2.00171435	     -7.25421756	      0.00000000	      0.00000000	      0.00000000	      0.00000000	      0.00000000	      0.00000000	      0.00000000	      0.00000000	      0.00000000	      0.00000000	      0.00000000	      0.00000000	      0.00000000	      0.00000000
      1.99000000	     -1.47837848	      4.68514261	    -89.77041584	      0.13973343	      0.92472679	      1.05440911	      3.18159301	      4.22895204	      0.39271745	      2.48715391	      0.04340902	      6.29266183	      0.00000000	      0.00000000	     30.14969369	     -8.73955339	      0.33918731	     62.72594164	      1.09477421	      7.22602648	      0.00000000	      0.00000000	     -3.46644239	      2.16501429	     -7.20071864	      0.00000000	      0.00000000	      0.00000000	      0.00000000	      0.00000000	      0.00000000	      0.00000000	      0.00000000	      0.00000000	      0.00000000	      0.00000000	      0.00000000	      0.00000000	      0.00000000
      2.00000000	     -1.33141363	      4.63530613	    -89.79606893	      0.13934159	      0.92459441	      1.06212930	      2.10067259	      4.11881132	      1.11654081	      1.63063022	      0.02845987	      6.57812014	      0.00000000	      0.00000000	     30.85983435	     -8.48812425	      0.18474142	     60.93488937	      1.06351445	      6.87331333	      0.00000000	      0.00000000	     -3.60424356	      1.95779258	     -6.70865593	      0.00000000	      0.00000000	      0.00000000	      0.00000000	      0.00000000	      0.00000000	      0.00000000	      0.00000000	      0.00000000	      0.00000000	      0.00000000	      0.00000000	      0.00000000	      0.00000000
      2.01000000	     -1.26216126	      4.46789709	    -89.79817948	      0.13910102	      0.92451014	      1.06993293	      1.00898165	      4.07239264	      1.18107477	      0.97902099	      0.01708714	      6.74163048	      0.00000000	     -0.00000000	     31.34985326	     -8.26526687	      0.14085737	     58.96775714	      1.02918151	      6.64248837	      0.00000000	     -0.00000000	     -3.87213291	      1.87591873	     -6.52176829	     -0.00000000	      0.00000000	      0.00000000	      0.00000000	      0.00000000	      0.00000000	     -0.00000000	     -0.00000000	      0.00000000	      0.00000000	      0.00000000	      0.00000000	      0.00000000	      0.00000000
      2.02000000	     -1.48230016	      4.74339712	    -89.79367551	      0.13878563	      0.92344682	      1.07721853	      0.66597355	      4.34367394	      0.82976764	      0.76967193	      0.01343331	      6.90199120	      0.00000000	      0.00000000	     32.44120996	     -8.35829087	      0.23688099	     57.11123535	      0.99677910	      6.77014502	      0.00000000	      0.00000000	     -3.68543720	      2.13295550	     -6.43443317	      0.00000000	      0.00000000	      0.00000000	      0.00000000	      0.00000000	      0.00000000	      0.00000000	      0.00000000	      0.00000000	      0.00000000	      0.00000000	      0.00000000	      0.00000000	      0.00000000
      2.03000000	     -1.38069092	      4.81156042	    -89.80724418	      0.13865213	      0.92280816	      1.08501695	     -0.23112579	      4.25501671	      1.52977464	      0.05365384	      0.00093644	      7.37312695	      0.00000000	      0.00000000	     33.03619536	     -8.08700676	      0.16489273	     54.80591846	      0.95654373	      6.09479265	      0.00000000	      0.00000000	     -3.65865923	      1.98389380	     -5.91413246	      0.00000000	      0.00000000	      0.00000000	      0.00000000	      0.00000000	      0.00000000	      0.00000000	      0.00000000	      0.00000000	      0.00000000	      0.00000000	      0.00000000	      0.00000000	      0.00000000
      2.04000000	     -1.67470516	      5.06462838	    -89.79931763	      0.13841114	      0.92154222	      1.09250816	     -0.61815334	      4.60580462	      1.16182228	     -0.17577608	     -0.00306787	      7.52964353	      0.00000000	      0.00000000	     33.94782462	     -8.26297359	      0.23757656	     52.67197289	      0.91929935	      6.24727338	      0.00000000	      0.00000000	     -3.46552912	      2.32407291	     -5.91610886	      0.00000000	      0.00000000	      0.00000000	      0.00000000	      0.00000000	      0.00000000	      0.00000000	      0.00000000	      0.00000000	      0.00000000	      0.00000000	      0.00000000	      0.00000000	      0.00000000
      2.05000000	     -1.33983247	      4.62176905	    -89.81578780	      0.13851795	      0.92166017	      1.10086432	     -2.17321598	      4.23757725	      1.82593601	     -1.01629167	     -0.01773764	      7.86024917	      0.00000000	      0.00000000	     33.63336228	     -7.75429509	     -0.03510884	     49.80664238	      0.86928990	      5.23839739	      0.00000000	      0.00000000	     -4.02851167	      1.91054975	     -5.55517042	      0.00000000	      0.00000000	      0.00000000	      0.00000000	      0.00000000	      0.00000000	      0.00000000	      0.00000000	      0.00000000	      0.00000000	      0.00000000	      0.00000000	      0.00000000	      0.00000000
      2.06000000	     -1.71670185	      4.95656336	    -89.80844195	      0.13830129	      0.92002826	      1.10850950	     -2.47414993	      4.67963305	      1.49585325	     -1.23376037	     -0.02153318	      8.04250977	     -0.00000000	     -0.00000000	     34.50619308	     -8.03436225	     -0.02172041	     47.47520973	      0.82859872	      5.44474768	      0.00000000	     -0.00000000	     -3.70992423	      2.33400836	     -5.50886022	     -0.00000000	     -0.00000000	      0.00000000	      0.00000000	      0.00000000	      0.00000000	     -0.00000000	     -0.00000000	      0.00000000	     -0.00000000	      0.00000000	      0.00000000	      0.00000000	      0.00000000
      2.07000000	     -1.48752373	      4.74930039	    -89.81963125	      0.13849595	      0.91955307	      1.11672205	     -3.68053328	      4.41100691	      2.18202358	     -1.88738240	     -0.03294104	      8.52990141	      0.00000000	      0.00000000	     34.35644079	     -7.61307535	     -0.25319942	     44.38321495	      0.77463323	      4.04858282	      0.00000000	      0.00000000	     -4.02574259	      2.02681379	     -5.11839085	      0.00000000	      0.00000000	      0.00000000	      0.00000000	      0.00000000	      0.00000000	      0.00000000	      0.00000000	      0.00000000	      0.00000000	      0.00000000	      0.00000000	      0.00000000	      0.00000000
